<?xml version="1.0" standalone="no"?>
<!DOCTYPE svg PUBLIC "-//W3C//DTD SVG 20010904//EN"
 "http://www.w3.org/TR/2001/REC-SVG-20010904/DTD/svg10.dtd">
<svg version="1.0" xmlns="http://www.w3.org/2000/svg"
 width="197.000000pt" height="197.000000pt" viewBox="0 0 197.000000 197.000000"
 preserveAspectRatio="xMidYMid meet">
<metadata>
Created by potrace 1.15, written by Peter Selinger 2001-2017
</metadata>
<g transform="translate(0.000000,197.000000) scale(0.100000,-0.100000)"
fill="#000000" stroke="none">
<path d="M780 1955 c-384 -77 -691 -388 -766 -773 -16 -87 -18 -283 -3 -368
14 -83 46 -177 86 -258 125 -253 333 -427 610 -513 82 -25 100 -27 273 -27
174 0 191 2 274 27 328 101 572 345 672 672 26 85 28 101 28 275 0 174 -2 190
-28 275 -111 362 -395 622 -754 691 -91 17 -304 17 -392 -1z m343 -199 c298
-57 534 -278 614 -576 24 -89 24 -290 0 -380 -60 -222 -209 -405 -412 -506
-129 -63 -196 -79 -345 -79 -149 0 -216 16 -345 79 -203 101 -352 284 -412
506 -24 90 -24 291 0 380 51 189 166 352 320 454 180 118 379 160 580 122z"/>
<path d="M875 1530 c-198 -44 -352 -180 -417 -368 -32 -95 -32 -249 0 -343 57
-166 185 -294 350 -351 95 -32 249 -32 344 0 163 56 292 184 347 345 l20 57
-132 0 -132 -1 -27 -44 c-118 -195 -424 -169 -522 44 -32 71 -29 179 7 253 99
202 390 224 513 38 l27 -40 129 0 130 0 -6 28 c-14 58 -70 155 -122 211 -104
113 -227 170 -379 176 -49 2 -108 0 -130 -5z"/>
</g>
</svg>
